mtllib scene_good.mtl
o terrain
usemtl ground
v -30.000 0.500 -30.000
v 30.000 0.500 -30.000
v 30.000 0.500 30.000
v -30.000 0.500 30.000
f 1 2 3 4
o water
usemtl sea
v -30.000 0.000 -30.000
v 30.000 0.000 -30.000
v 30.000 0.000 30.000
v -30.000 0.000 30.000
f 5 6 7 8
o lighthouse_tower
usemtl stone
v 24.000 0.500 -20.000
v 26.000 0.500 -20.000
v 26.000 20.000 -20.000
v 24.000 20.000 -20.000
f 9 10 11 12
v 25.000 0.500 -21.000
v 25.000 0.500 -19.000
v 25.000 20.000 -19.000
v 25.000 20.000 -21.000
f 13 14 15 16
o house_1
usemtl wall
v -21.000 0.500 -20.000
v -19.000 0.500 -20.000
v -19.000 2.500 -20.000
v -21.000 2.500 -20.000
f 17 18 19 20
v -20.000 0.500 -21.000
v -20.000 0.500 -19.000
v -20.000 2.500 -19.000
v -20.000 2.500 -21.000
f 21 22 23 24
o house_2
usemtl wall
v -11.000 0.500 -20.000
v -9.000 0.500 -20.000
v -9.000 2.500 -20.000
v -11.000 2.500 -20.000
f 25 26 27 28
v -10.000 0.500 -21.000
v -10.000 0.500 -19.000
v -10.000 2.500 -19.000
v -10.000 2.500 -21.000
f 29 30 31 32
o house_3
usemtl wall
v -1.000 0.500 -20.000
v 1.000 0.500 -20.000
v 1.000 2.500 -20.000
v -1.000 2.500 -20.000
f 33 34 35 36
v 0.000 0.500 -21.000
v 0.000 0.500 -19.000
v 0.000 2.500 -19.000
v 0.000 2.500 -21.000
f 37 38 39 40
o house_4
usemtl wall
v 9.000 0.500 -20.000
v 11.000 0.500 -20.000
v 11.000 2.500 -20.000
v 9.000 2.500 -20.000
f 41 42 43 44
v 10.000 0.500 -21.000
v 10.000 0.500 -19.000
v 10.000 2.500 -19.000
v 10.000 2.500 -21.000
f 45 46 47 48
o house_5
usemtl wall
v 19.000 0.500 -20.000
v 21.000 0.500 -20.000
v 21.000 2.500 -20.000
v 19.000 2.500 -20.000
f 49 50 51 52
v 20.000 0.500 -21.000
v 20.000 0.500 -19.000
v 20.000 2.500 -19.000
v 20.000 2.500 -21.000
f 53 54 55 56
o pier_1
usemtl wood
v 0.000 -1.000 25.000
v 2.000 -1.000 25.000
v 2.000 1.000 28.000
v 0.000 1.000 28.000
f 57 58 59 60
